<?xml version="1.0" encoding="UTF-8"?>
<svg id="Ebene_1" xmlns="http://www.w3.org/2000/svg" version="1.1" viewBox="0 0 146 141.41">
  <!-- Generator: Adobe Illustrator 30.1.0, SVG Export Plug-In . SVG Version: 2.1.1 Build 136)  -->
  <defs>
    <style>
      .st0 {
        fill: #d98f77;
      }
    </style>
  </defs>
  <path class="st0" d="M124.54,84.69c-4.75,2.75-9.65,5.59-14.56,9.47-12.9,10.21-15.43,21.11-17.47,29.86-1.01,4.35-1.88,8.1-3.94,10.8-3.22,4.21-7.23,6.58-10.91,6.58-.75,0-1.48-.1-2.2-.3-2.88-.81-6.51-3.61-7.4-12.33-.88-8.63.05-16.82,2.77-24.53-2.63.59-5.02.79-6.74.79s-2.78-.15-2.89-.16c-1.38-.2-2.34-1.47-2.14-2.85.2-1.38,1.47-2.34,2.85-2.14.07,0,5.68.72,11.47-1.66,2.81-5.71,6.68-11.12,11.59-16.22,2.58-2.68,5.32-5.12,8.1-7.35l-10.25,2.76c-.15.04-.29.06-.44.06-.74,0-1.42-.5-1.62-1.25-.24-.9.29-1.82,1.19-2.06l18.76-5.05c5.96-3.95,11.74-7.01,16.38-9.31,1.25-.62,2.76-.11,3.38,1.14.62,1.25.11,2.76-1.14,3.38-8.46,4.19-20.86,10.94-30.73,21.18-11.93,12.37-17.15,26.76-15.51,42.76.46,4.53,1.83,7.44,3.75,7.98,2.07.59,5.25-1.26,7.72-4.49,1.4-1.83,2.16-5.1,3.04-8.88,2.1-9.02,4.97-21.37,19.25-32.67,5.19-4.11,10.49-7.18,15.16-9.88,13.59-7.87,22.58-13.1,17.53-35.82-3.41-10.99-9.35-20.18-17.51-26.89-9.35-7.68-21.23-12.01-34.34-12.52-13.84-.53-27.7,3.29-39.05,10.78-12.23,8.07-20.51,19.64-23.94,33.45-.07.3-.14.6-.21.9,14.41,3.18,24.61-3.03,29.83-7.61,6.77-5.93,9.63-14.22,11.94-20.88,2.17-6.27,3.88-11.23,8.47-11.23,6.55,0,12.4,12.63,14.32,16.78,3.82,8.24,6.91,17.76,7.19,22.13.09,1.39-.97,2.59-2.36,2.68-1.37.08-2.59-.97-2.68-2.36-.21-3.24-2.84-11.94-6.74-20.34-5.24-11.31-8.88-13.86-9.75-13.86-.99,0-2.75,5.09-3.7,7.83-2.37,6.84-5.61,16.22-13.38,23.03-10.21,8.95-23.17,11.76-36.46,8.18-.1,0-.19.02-.28,0-.16-.04-.29-.13-.44-.2-2.39-.68-4.79-1.55-7.18-2.65-6.64-3.05-8.04-1.97-8.05-1.96-.58.89-.27,6.06,8.03,19.09,6.03,9.47,13.26,18.34,16.77,21.43,1.04.92,1.14,2.52.22,3.56-.5.56-1.19.85-1.89.85-.59,0-1.19-.21-1.67-.63-4.38-3.86-11.99-13.54-17.69-22.51C-2.84,52.94.06,48.48,1.01,47.02c3.25-5,11.63-1.14,14.38.12,1.45.67,2.86,1.21,4.24,1.7.06-.24.11-.48.17-.73,3.74-15.06,12.75-27.66,26.06-36.44C58.09,3.6,73.02-.53,87.89.05c21.41.83,45.86,12.09,55.7,40.43.28.79.56,1.56.76,2.42,0,.01.01.02.01.03,0,.02,0,.04.01.07,0,.01,0,.03.01.04,0,0,0,.01,0,.02,6.03,26.63-5.97,33.59-19.86,41.63ZM59.76,81.61c-.07-.66.13-1.32.54-1.77.03-.03.06-.07.09-.1,1.96-1.86,6.83-6.12,9.69-5.59.87.16,1.57.7,1.95,1.5,1.02,2.15,1.13,7.57-1.78,9.97-.72.59-1.71,1.09-3.02,1.09-1.41,0-3.19-.57-5.4-2.19-1.29-.95-1.97-1.9-2.07-2.92ZM63.44,81.51c.1.09.23.19.38.31,1.14.84,3.22,2.11,4.29,1.22,1.24-1.02,1.42-4.06,1.04-5.51-1.1.34-3.51,2.02-5.71,3.98ZM105.6,48.26c-.55-.75-1.6-.91-2.35-.37l-24.19,17.67c-.75.55-.91,1.6-.37,2.35.33.45.84.69,1.36.69.34,0,.69-.11.99-.32l24.19-17.67c.75-.55.91-1.6.37-2.35ZM102.81,59.97l-21.13,9.69c-.84.39-1.21,1.39-.83,2.23.28.62.89.98,1.53.98.23,0,.47-.05.7-.15l21.13-9.69c.84-.39,1.21-1.39.83-2.23-.39-.84-1.38-1.21-2.23-.83ZM49.96,86.71c-.45-.81-1.48-1.1-2.29-.66l-24.64,13.67c-.81.45-1.11,1.47-.66,2.29.31.55.88.87,1.47.87.28,0,.56-.07.81-.21l24.64-13.67c.81-.45,1.11-1.47.66-2.29ZM53.26,88.76c-.6-.71-1.66-.8-2.37-.2l-16.77,14.19c-.71.6-.8,1.66-.2,2.37.33.39.81.6,1.28.6.38,0,.77-.13,1.09-.4l16.77-14.19c.71-.6.8-1.66.2-2.37ZM56.5,91.27c-.78-.5-1.82-.28-2.33.5l-14.58,22.58c-.5.78-.28,1.82.5,2.33.28.18.6.27.91.27.55,0,1.09-.27,1.41-.77l14.58-22.58c.5-.78.28-1.82-.5-2.33Z"/>
</svg>