<?xml version="1.0" encoding="UTF-8"?>
<svg id="Ebene_1" data-name="Ebene 1" xmlns="http://www.w3.org/2000/svg" xmlns:xlink="http://www.w3.org/1999/xlink" viewBox="0 0 59.42 59.42">
  <defs>
    <style>
      .cls-1 {
        fill: none;
      }

      .cls-2 {
        fill: #fff;
      }

      .cls-3 {
        clip-path: url(#clippath);
      }
    </style>
    <clipPath id="clippath">
      <circle class="cls-1" cx="29.71" cy="29.71" r="28.35"/>
    </clipPath>
  </defs>
  <g class="cls-3">
    <path class="cls-2" d="M36.97,26.83c8.39-5.4,15.48-12.01,15.48-20.19,0-.94-.91-1.7-2.02-1.7h0c-1.12,0-2.02.76-2.02,1.7,0,6.91-6.53,12.8-14.3,17.74V1.36h-4.36v25.65c-1.95,1.11-3.91,2.17-5.81,3.17,0-3.51-.03-5.27-.05-6.97-.02-2.08-.05-4.04-.05-8.99,0-3.81-1.93-6.84-5.31-8.33-3.02-1.33-6.63-1.14-9.42.48-3.26,1.89-4.78,5.35-4.18,9.48.14.93,1.15,1.59,2.26,1.48,1.11-.11,1.9-.96,1.76-1.9-.42-2.87.46-5.1,2.47-6.26,1.56-.9,3.56-1.01,5.24-.27,2.02.89,3.14,2.78,3.14,5.32,0,4.96.02,6.94.05,9.02.02,2,.05,4.1.05,9.05-6.17,3.21-11,5.8-12.91,8.37-3.53,4.77-2.08,9.01.46,11.38,1.78,1.66,4.17,2.55,6.55,2.55,1.18,0,2.36-.22,3.46-.67,6.21-2.53,6.48-6.28,6.48-18.91v-.83c1.87-.97,3.83-2,5.8-3.09v26.95h4.36v-28.62c12.65,4.97,14.29,22.24,14.31,22.42.08.89.97,1.58,2.02,1.58.05,0,.1,0,.15,0,1.12-.07,1.95-.88,1.88-1.82-.07-.8-1.73-18.5-15.47-24.78ZM15.69,50.87c-1.69.69-3.79.25-5.23-1.1-1.56-1.45-2.38-4.14-.03-7.31,1.22-1.65,5.03-3.82,9.47-6.16-.05,12.39-.91,13.22-4.2,14.56Z"/>
  </g>
</svg>