<?xml version="1.0" encoding="UTF-8"?>
<svg id="Ebene_1" data-name="Ebene 1" xmlns="http://www.w3.org/2000/svg" viewBox="0 0 52.78 62.11">
  <defs>
    <style>
      .cls-1 {
        fill: #364866;
      }
    </style>
  </defs>
  <path class="cls-1" d="M27.64,27.79V3.79c0-1.1.89-2,2-2,.75,0,1.39.42,1.74,1.03-.98.13-1.74.96-1.74,1.97v24c-1.97,1.34-3.96,2.62-5.88,3.83,0-.84,0-1.58,0-2.27,1.29-.83,2.59-1.67,3.89-2.56ZM15.61,56.94c3.25-1.58,4.1-2.56,4.15-17.12-.69.43-1.36.86-2.02,1.28-.14,12.38-1.06,13.35-4.13,14.84-.81.39-1.71.47-2.59.27,1.37,1.14,3.14,1.44,4.59.73ZM33.64,25.93c7.74-5.84,14.29-12.81,14.29-20.98,0-1.01.76-1.84,1.74-1.97-.34-.61-.99-1.03-1.74-1.03h0c-1.1,0-2,.9-2,2,0,7.46-5.45,13.91-12.29,19.42v2.56ZM5.21,16.52s.01,0,.02,0c-.13-.22-.21-.47-.24-.74-.59-4.86.91-8.92,4.13-11.14,2.38-1.65,5.36-2.03,8.05-1.1-.24-.16-.48-.33-.74-.46-2.98-1.56-6.54-1.35-9.31.56-3.22,2.22-4.73,6.29-4.13,11.14.13,1.1,1.14,1.87,2.23,1.74ZM7.47,58.33c-2.51-2.79-3.95-7.77-.46-13.38,1.88-3.03,6.66-6.06,12.75-9.84,0-5.82-.03-8.29-.05-10.64-.02-2.45-.05-4.77-.05-10.6,0-2.98-1.1-5.2-3.1-6.25-.37-.19-.76-.33-1.15-.43,1.46,1.18,2.25,3.15,2.25,5.68,0,5.84.02,8.15.05,10.6.02,2.35.05,4.82.05,10.64-6.09,3.78-10.87,6.81-12.75,9.84-3.49,5.61-2.05,10.59.46,13.38,1.08,1.2,2.4,2.06,3.8,2.54-.64-.43-1.25-.93-1.8-1.54ZM47.93,58.09c-.02-.21-1.65-20.7-14.29-26.44v.09c10.81,6.86,12.28,25.14,12.29,25.35.08,1.05.95,1.86,1.99,1.86.05,0,.1,0,.14,0,.04,0,.08-.02.12-.02-.14-.25-.23-.53-.26-.83ZM29.64,57.95v-24.34c-.67.44-1.34.86-2,1.29v22.06c0,1.1.9,2,2,2,.09,0,.18-.02.26-.03-.16-.29-.26-.62-.26-.97Z"/>
</svg>